ply
            format ascii 1.0
            element vertex 720
            property float x
            property float y
            property float z
            property uchar red
            property uchar green
            property uchar blue
            end_header
            63.000000 0.000000 0.000000 0 0 0
64.000000 0.000000 0.000000 0 0 0
65.000000 0.000000 0.000000 1 1 1
66.000000 0.000000 0.000000 3 3 3
67.000000 0.000000 0.000000 5 5 5
68.000000 0.000000 0.000000 9 9 10
69.000000 0.000000 0.000000 15 15 15
70.000000 0.000000 0.000000 23 23 23
71.000000 0.000000 0.000000 32 32 33
72.000000 0.000000 0.000000 45 45 45
73.000000 0.000000 0.000000 59 59 60
74.000000 0.000000 0.000000 74 75 75
75.000000 0.000000 0.200000 91 92 93
76.000000 0.000000 0.600000 110 110 113
77.000000 0.000000 0.800000 128 128 132
78.000000 0.000000 0.800000 150 151 155
63.000000 -1.000000 0.000000 24 24 24
64.000000 -1.000000 0.000000 33 33 33
65.000000 -1.000000 0.000000 45 45 45
66.000000 -1.000000 0.000000 58 58 58
67.000000 -1.000000 0.000000 71 71 71
68.000000 -1.000000 0.000000 85 85 86
69.000000 -1.000000 0.000000 100 100 100
70.000000 -1.000000 0.000000 113 113 114
71.000000 -1.000000 0.000000 125 125 127
72.000000 -1.000000 0.000000 137 137 138
73.000000 -1.000000 0.000000 146 146 148
74.000000 -1.000000 0.000000 153 154 156
75.000000 -1.000000 0.200000 159 160 162
76.000000 -1.000000 0.600000 164 165 169
77.000000 -1.000000 0.600000 168 169 173
78.000000 -1.000000 0.600000 176 177 182
63.000000 -2.000000 0.000000 149 149 149
64.000000 -2.000000 0.000000 165 165 165
65.000000 -2.000000 0.000000 177 177 177
66.000000 -2.000000 0.000000 188 188 188
67.000000 -2.000000 0.000000 195 195 196
68.000000 -2.000000 0.000000 201 201 202
69.000000 -2.000000 0.000000 205 205 206
70.000000 -2.000000 0.000000 207 207 208
71.000000 -2.000000 0.000000 207 207 208
72.000000 -2.000000 0.000000 206 206 207
73.000000 -2.000000 0.000000 203 204 205
74.000000 -2.000000 0.200000 200 202 202
75.000000 -2.000000 0.200000 197 199 200
76.000000 -2.000000 0.400000 194 195 198
77.000000 -2.000000 0.600000 195 196 199
78.000000 -2.000000 0.600000 196 197 201
63.000000 -3.000000 0.000000 218 218 218
64.000000 -3.000000 0.000000 217 217 217
65.000000 -3.000000 0.000000 217 217 217
66.000000 -3.000000 0.000000 216 216 216
67.000000 -3.000000 0.000000 215 215 215
68.000000 -3.000000 0.000000 216 216 216
69.000000 -3.000000 0.000000 224 224 224
70.000000 -3.000000 0.000000 226 226 226
71.000000 -3.000000 0.000000 224 224 224
72.000000 -3.000000 0.000000 221 221 222
73.000000 -3.000000 0.000000 218 218 218
74.000000 -3.000000 0.000000 213 215 214
75.000000 -3.000000 0.200000 210 211 211
76.000000 -3.000000 0.400000 207 208 209
77.000000 -3.000000 0.600000 210 211 214
78.000000 -3.000000 0.600000 207 208 212
63.000000 -4.000000 0.000000 219 219 219
64.000000 -4.000000 0.000000 211 211 210
65.000000 -4.000000 0.000000 209 210 209
66.000000 -4.000000 0.000000 209 209 208
67.000000 -4.000000 0.000000 212 213 212
68.000000 -4.000000 0.000000 226 225 226
69.000000 -4.000000 0.000000 238 237 238
70.000000 -4.000000 0.000000 240 239 240
71.000000 -4.000000 0.000000 237 237 237
72.000000 -4.000000 0.000000 234 234 234
73.000000 -4.000000 0.000000 231 231 231
74.000000 -4.000000 0.000000 227 227 227
75.000000 -4.000000 0.200000 222 223 223
76.000000 -4.000000 0.400000 221 222 222
77.000000 -4.000000 0.600000 224 226 227
78.000000 -4.000000 0.600000 215 216 218
63.000000 -5.000000 0.000000 224 223 224
64.000000 -5.000000 0.000000 201 202 200
65.000000 -5.000000 0.000000 197 197 195
66.000000 -5.000000 0.000000 197 197 195
67.000000 -5.000000 0.000000 218 218 217
68.000000 -5.000000 0.000000 247 244 247
69.000000 -5.000000 0.000000 252 248 252
70.000000 -5.000000 0.000000 251 248 251
71.000000 -5.000000 0.000000 249 246 249
72.000000 -5.000000 0.000000 246 245 246
73.000000 -5.000000 0.000000 242 242 243
74.000000 -5.000000 0.000000 238 238 239
75.000000 -5.000000 0.200000 234 235 235
76.000000 -5.000000 0.400000 236 236 237
77.000000 -5.000000 0.600000 236 237 238
78.000000 -5.000000 0.600000 220 221 223
63.000000 -6.000000 0.000000 212 212 213
64.000000 -6.000000 0.000000 192 192 191
65.000000 -6.000000 0.000000 191 191 189
66.000000 -6.000000 0.000000 198 198 196
67.000000 -6.000000 0.000000 231 231 231
68.000000 -6.000000 0.000000 252 250 251
69.000000 -6.000000 0.000000 254 251 253
70.000000 -6.000000 0.000000 254 251 253
71.000000 -6.000000 0.000000 254 250 253
72.000000 -6.000000 0.000000 253 250 253
73.000000 -6.000000 0.000000 252 249 252
74.000000 -6.000000 0.000000 249 246 249
75.000000 -6.000000 0.200000 246 244 247
76.000000 -6.000000 0.400000 248 246 250
77.000000 -6.000000 0.600000 245 244 247
78.000000 -6.000000 0.600000 221 222 224
63.000000 -7.000000 0.000000 213 213 213
64.000000 -7.000000 0.000000 206 206 205
65.000000 -7.000000 0.000000 207 208 206
66.000000 -7.000000 0.000000 220 220 219
67.000000 -7.000000 0.000000 246 246 246
68.000000 -7.000000 0.000000 253 253 253
69.000000 -7.000000 0.000000 253 253 253
70.000000 -7.000000 0.000000 253 253 253
71.000000 -7.000000 0.000000 253 252 253
72.000000 -7.000000 0.000000 254 252 253
73.000000 -7.000000 0.000000 254 251 254
74.000000 -7.000000 0.000000 254 250 254
75.000000 -7.000000 0.000000 254 249 253
76.000000 -7.000000 0.400000 254 249 254
77.000000 -7.000000 0.600000 252 248 253
78.000000 -7.000000 0.600000 218 218 222
63.000000 -8.000000 0.000000 240 240 240
64.000000 -8.000000 0.000000 240 240 240
65.000000 -8.000000 0.000000 242 242 242
66.000000 -8.000000 0.000000 246 246 246
67.000000 -8.000000 0.000000 252 252 252
68.000000 -8.000000 0.000000 253 253 253
69.000000 -8.000000 0.000000 253 253 253
70.000000 -8.000000 0.000000 253 253 253
71.000000 -8.000000 0.000000 253 253 253
72.000000 -8.000000 0.000000 253 253 253
73.000000 -8.000000 0.000000 253 253 254
74.000000 -8.000000 0.000000 253 252 253
75.000000 -8.000000 0.000000 254 252 253
76.000000 -8.000000 0.400000 254 251 253
77.000000 -8.000000 0.600000 253 250 253
78.000000 -8.000000 0.600000 210 209 212
63.000000 -9.000000 0.000000 254 254 254
64.000000 -9.000000 0.000000 254 254 254
65.000000 -9.000000 0.000000 254 254 254
66.000000 -9.000000 0.000000 253 253 253
67.000000 -9.000000 0.000000 253 253 253
68.000000 -9.000000 0.000000 253 253 253
69.000000 -9.000000 0.000000 253 253 253
70.000000 -9.000000 0.000000 253 253 253
71.000000 -9.000000 0.000000 253 253 253
72.000000 -9.000000 0.000000 253 253 253
73.000000 -9.000000 0.000000 253 253 253
74.000000 -9.000000 0.000000 253 253 253
75.000000 -9.000000 0.000000 253 253 253
76.000000 -9.000000 0.400000 253 253 253
77.000000 -9.000000 0.600000 252 251 253
78.000000 -9.000000 0.600000 197 195 197
63.000000 -10.000000 0.000000 254 254 254
64.000000 -10.000000 0.000000 254 254 254
65.000000 -10.000000 0.000000 254 254 254
66.000000 -10.000000 0.000000 253 253 253
67.000000 -10.000000 0.000000 253 253 253
68.000000 -10.000000 0.000000 253 253 253
69.000000 -10.000000 0.000000 253 253 253
70.000000 -10.000000 0.000000 253 253 253
71.000000 -10.000000 0.000000 253 253 253
72.000000 -10.000000 0.000000 253 253 253
73.000000 -10.000000 0.000000 253 253 253
74.000000 -10.000000 0.000000 253 253 253
75.000000 -10.000000 0.200000 253 253 253
76.000000 -10.000000 0.400000 252 253 253
77.000000 -10.000000 0.400000 250 251 251
78.000000 -10.000000 0.400000 180 178 179
63.000000 -11.000000 0.000000 254 254 254
64.000000 -11.000000 0.000000 254 254 254
65.000000 -11.000000 0.000000 254 254 254
66.000000 -11.000000 0.000000 254 254 254
67.000000 -11.000000 0.000000 254 254 254
68.000000 -11.000000 0.000000 253 253 253
69.000000 -11.000000 0.000000 253 253 253
70.000000 -11.000000 0.000000 253 253 253
71.000000 -11.000000 0.000000 253 253 253
72.000000 -11.000000 0.000000 253 253 253
73.000000 -11.000000 0.000000 253 253 253
74.000000 -11.000000 0.200000 253 253 253
75.000000 -11.000000 0.200000 253 253 253
76.000000 -11.000000 0.200000 253 253 253
77.000000 -11.000000 0.400000 248 249 249
78.000000 -11.000000 0.400000 160 160 160
63.000000 -12.000000 0.000000 254 254 254
64.000000 -12.000000 0.000000 254 254 254
65.000000 -12.000000 0.000000 254 254 254
66.000000 -12.000000 0.000000 254 254 254
67.000000 -12.000000 0.000000 254 254 254
68.000000 -12.000000 0.000000 253 253 253
69.000000 -12.000000 0.000000 253 253 253
70.000000 -12.000000 0.000000 253 253 253
71.000000 -12.000000 0.000000 253 253 253
72.000000 -12.000000 0.000000 253 253 253
73.000000 -12.000000 0.000000 253 253 253
74.000000 -12.000000 0.200000 253 253 253
75.000000 -12.000000 0.200000 253 253 253
76.000000 -12.000000 0.200000 253 253 253
77.000000 -12.000000 0.200000 245 245 245
78.000000 -12.000000 0.200000 140 140 140
63.000000 -13.000000 0.000000 254 254 254
64.000000 -13.000000 0.000000 254 254 254
65.000000 -13.000000 0.000000 254 254 254
66.000000 -13.000000 0.000000 254 254 254
67.000000 -13.000000 0.000000 254 254 254
68.000000 -13.000000 0.000000 254 254 254
69.000000 -13.000000 0.000000 254 254 254
70.000000 -13.000000 0.000000 253 253 253
71.000000 -13.000000 0.000000 253 253 253
72.000000 -13.000000 0.000000 253 253 253
73.000000 -13.000000 0.000000 253 253 253
74.000000 -13.000000 0.200000 253 253 253
75.000000 -13.000000 0.200000 253 253 253
76.000000 -13.000000 0.200000 253 253 253
77.000000 -13.000000 0.200000 241 241 241
78.000000 -13.000000 0.200000 121 121 121
63.000000 -14.000000 0.000000 254 254 254
64.000000 -14.000000 0.000000 254 254 254
65.000000 -14.000000 0.000000 254 254 254
66.000000 -14.000000 0.000000 254 254 254
67.000000 -14.000000 0.000000 254 254 254
68.000000 -14.000000 0.000000 254 254 254
69.000000 -14.000000 0.000000 253 253 253
70.000000 -14.000000 0.000000 253 253 253
71.000000 -14.000000 0.000000 253 253 253
72.000000 -14.000000 0.000000 253 253 253
73.000000 -14.000000 0.000000 253 253 253
74.000000 -14.000000 0.200000 253 253 253
75.000000 -14.000000 0.200000 253 253 253
76.000000 -14.000000 0.200000 253 253 253
77.000000 -14.000000 0.200000 235 235 235
78.000000 -14.000000 0.200000 102 102 102
63.000000 -15.000000 0.000000 254 254 254
64.000000 -15.000000 0.000000 254 254 254
65.000000 -15.000000 0.000000 254 254 254
66.000000 -15.000000 0.000000 254 254 254
67.000000 -15.000000 0.000000 254 254 254
68.000000 -15.000000 0.000000 254 254 254
69.000000 -15.000000 0.000000 253 253 253
70.000000 -15.000000 0.000000 253 253 253
71.000000 -15.000000 0.000000 253 253 253
72.000000 -15.000000 0.000000 254 254 254
73.000000 -15.000000 0.000000 253 253 253
74.000000 -15.000000 0.200000 253 253 253
75.000000 -15.000000 0.200000 253 253 253
76.000000 -15.000000 0.200000 253 253 253
77.000000 -15.000000 0.200000 227 227 227
78.000000 -15.000000 0.000000 85 85 85
63.000000 -16.000000 0.000000 254 254 254
64.000000 -16.000000 0.000000 254 254 254
65.000000 -16.000000 0.000000 254 254 254
66.000000 -16.000000 0.000000 254 254 254
67.000000 -16.000000 0.000000 254 254 254
68.000000 -16.000000 0.000000 254 254 254
69.000000 -16.000000 0.000000 253 253 253
70.000000 -16.000000 0.000000 253 253 253
71.000000 -16.000000 0.000000 252 252 252
72.000000 -16.000000 0.000000 251 251 251
73.000000 -16.000000 0.000000 252 252 252
74.000000 -16.000000 0.000000 253 253 253
75.000000 -16.000000 0.200000 253 253 253
76.000000 -16.000000 0.200000 253 253 253
77.000000 -16.000000 0.000000 218 218 218
78.000000 -16.000000 0.000000 70 70 70
63.000000 -17.000000 0.000000 253 253 253
64.000000 -17.000000 0.000000 252 252 252
65.000000 -17.000000 0.000000 251 251 251
66.000000 -17.000000 0.000000 253 253 253
67.000000 -17.000000 0.000000 253 253 253
68.000000 -17.000000 0.000000 252 252 252
69.000000 -17.000000 0.000000 252 252 252
70.000000 -17.000000 0.000000 251 251 251
71.000000 -17.000000 0.000000 249 249 249
72.000000 -17.000000 0.000000 247 247 247
73.000000 -17.000000 0.000000 249 249 249
74.000000 -17.000000 0.000000 253 253 253
75.000000 -17.000000 0.200000 253 253 253
76.000000 -17.000000 0.200000 253 252 253
77.000000 -17.000000 0.000000 207 207 208
78.000000 -17.000000 0.000000 56 56 56
63.000000 -18.000000 0.000000 246 246 246
64.000000 -18.000000 0.000000 245 245 246
65.000000 -18.000000 0.000000 245 245 247
66.000000 -18.000000 0.000000 252 252 252
67.000000 -18.000000 0.000000 253 253 253
68.000000 -18.000000 0.000000 253 253 253
69.000000 -18.000000 0.000000 253 253 253
70.000000 -18.000000 0.000000 253 253 253
71.000000 -18.000000 0.000000 253 253 253
72.000000 -18.000000 0.000000 252 252 252
73.000000 -18.000000 0.000000 252 252 252
74.000000 -18.000000 0.000000 253 253 253
75.000000 -18.000000 0.200000 253 253 253
76.000000 -18.000000 0.200000 252 251 252
77.000000 -18.000000 0.000000 194 193 196
78.000000 -18.000000 0.000000 44 44 44
63.000000 -19.000000 0.000000 249 249 249
64.000000 -19.000000 0.000000 250 250 250
65.000000 -19.000000 0.000000 252 252 252
66.000000 -19.000000 0.000000 254 254 254
67.000000 -19.000000 0.000000 254 254 254
68.000000 -19.000000 0.000000 254 254 254
69.000000 -19.000000 0.000000 254 254 254
70.000000 -19.000000 0.000000 254 254 254
71.000000 -19.000000 0.000000 254 254 254
72.000000 -19.000000 0.000000 253 253 253
73.000000 -19.000000 0.000000 253 252 253
74.000000 -19.000000 0.000000 252 252 252
75.000000 -19.000000 0.200000 251 250 251
76.000000 -19.000000 0.000000 247 246 249
77.000000 -19.000000 0.000000 177 176 180
78.000000 -19.000000 0.000000 33 33 34
63.000000 -20.000000 0.000000 254 254 254
64.000000 -20.000000 0.000000 253 253 253
65.000000 -20.000000 0.000000 253 253 253
66.000000 -20.000000 0.000000 252 252 252
67.000000 -20.000000 0.000000 253 253 253
68.000000 -20.000000 0.000000 253 253 253
69.000000 -20.000000 0.000000 253 253 253
70.000000 -20.000000 0.000000 253 253 253
71.000000 -20.000000 0.000000 253 253 253
72.000000 -20.000000 0.000000 253 253 253
73.000000 -20.000000 0.000000 253 252 252
74.000000 -20.000000 0.200000 253 251 252
75.000000 -20.000000 0.200000 248 248 251
76.000000 -20.000000 0.000000 236 237 242
77.000000 -20.000000 0.000000 156 156 160
78.000000 -20.000000 0.000000 24 24 25
63.000000 -21.000000 0.000000 251 251 251
64.000000 -21.000000 0.000000 249 249 249
65.000000 -21.000000 0.000000 246 246 246
66.000000 -21.000000 0.000000 245 245 245
67.000000 -21.000000 0.000000 250 249 250
68.000000 -21.000000 0.000000 253 251 253
69.000000 -21.000000 0.000000 253 252 252
70.000000 -21.000000 0.000000 252 253 253
71.000000 -21.000000 0.000000 253 253 253
72.000000 -21.000000 0.000000 253 253 253
73.000000 -21.000000 0.000000 253 252 253
74.000000 -21.000000 0.200000 254 251 253
75.000000 -21.000000 0.200000 247 246 250
76.000000 -21.000000 0.000000 226 228 233
77.000000 -21.000000 0.000000 136 137 140
78.000000 -21.000000 0.000000 17 17 17
63.000000 -22.000000 0.000000 242 242 242
64.000000 -22.000000 0.000000 238 239 238
65.000000 -22.000000 0.000000 235 235 235
66.000000 -22.000000 0.000000 239 239 240
67.000000 -22.000000 0.000000 249 247 250
68.000000 -22.000000 0.000000 254 250 253
69.000000 -22.000000 0.000000 254 251 252
70.000000 -22.000000 0.000000 253 252 253
71.000000 -22.000000 0.000000 253 252 253
72.000000 -22.000000 0.000000 253 253 253
73.000000 -22.000000 0.000000 253 252 253
74.000000 -22.000000 0.200000 253 250 252
75.000000 -22.000000 0.200000 244 244 247
76.000000 -22.000000 0.000000 219 222 225
77.000000 -22.000000 0.000000 120 122 124
78.000000 -22.000000 0.000000 12 13 13
63.000000 -23.000000 0.000000 227 228 228
64.000000 -23.000000 0.000000 224 225 224
65.000000 -23.000000 0.000000 224 225 224
66.000000 -23.000000 0.000000 234 235 234
67.000000 -23.000000 0.000000 245 244 245
68.000000 -23.000000 0.000000 253 249 251
69.000000 -23.000000 0.000000 255 250 253
70.000000 -23.000000 0.000000 255 250 254
71.000000 -23.000000 0.000000 254 250 253
72.000000 -23.000000 0.000000 254 250 253
73.000000 -23.000000 0.000000 254 250 253
74.000000 -23.000000 0.200000 251 249 252
75.000000 -23.000000 0.200000 239 241 243
76.000000 -23.000000 0.000000 212 215 217
77.000000 -23.000000 0.000000 105 107 108
78.000000 -23.000000 0.000000 9 9 9
63.000000 -24.000000 0.000000 211 212 211
64.000000 -24.000000 0.000000 209 211 209
65.000000 -24.000000 0.000000 217 219 216
66.000000 -24.000000 0.000000 228 230 229
67.000000 -24.000000 0.000000 238 239 238
68.000000 -24.000000 0.000000 248 245 246
69.000000 -24.000000 0.000000 253 248 251
70.000000 -24.000000 0.000000 254 249 253
71.000000 -24.000000 0.000000 254 249 254
72.000000 -24.000000 0.000000 253 249 254
73.000000 -24.000000 0.000000 251 249 253
74.000000 -24.000000 0.000000 245 246 248
75.000000 -24.000000 0.000000 232 235 236
76.000000 -24.000000 0.000000 203 206 208
77.000000 -24.000000 0.000000 92 94 95
78.000000 -24.000000 0.000000 6 6 6
63.000000 -25.000000 0.000000 196 198 195
64.000000 -25.000000 0.000000 203 205 202
65.000000 -25.000000 0.000000 218 220 218
66.000000 -25.000000 0.000000 224 226 224
67.000000 -25.000000 0.000000 231 232 231
68.000000 -25.000000 0.000000 238 238 238
69.000000 -25.000000 0.000000 244 243 244
70.000000 -25.000000 0.000000 246 246 247
71.000000 -25.000000 0.000000 247 246 248
72.000000 -25.000000 0.000000 245 245 247
73.000000 -25.000000 0.000000 242 243 244
74.000000 -25.000000 0.000000 236 237 239
75.000000 -25.000000 0.000000 223 227 227
76.000000 -25.000000 0.000000 193 196 199
77.000000 -25.000000 0.000000 80 82 84
78.000000 -25.000000 0.000000 4 4 4
63.000000 -26.000000 0.000000 188 190 187
64.000000 -26.000000 0.000000 199 202 200
65.000000 -26.000000 0.000000 220 222 220
66.000000 -26.000000 0.000000 223 224 223
67.000000 -26.000000 0.000000 223 225 224
68.000000 -26.000000 0.000000 229 231 230
69.000000 -26.000000 0.000000 233 236 235
70.000000 -26.000000 0.000000 236 238 237
71.000000 -26.000000 0.000000 236 238 237
72.000000 -26.000000 0.000000 234 237 235
73.000000 -26.000000 0.000000 230 234 233
74.000000 -26.000000 0.000000 225 228 228
75.000000 -26.000000 0.000000 214 218 219
76.000000 -26.000000 0.000000 183 186 190
77.000000 -26.000000 0.000000 69 71 73
78.000000 -26.000000 0.000000 3 3 3
63.000000 -27.000000 0.000000 184 187 184
64.000000 -27.000000 0.000000 187 191 189
65.000000 -27.000000 0.000000 207 208 208
66.000000 -27.000000 0.000000 221 223 222
67.000000 -27.000000 0.000000 215 217 216
68.000000 -27.000000 0.000000 219 221 220
69.000000 -27.000000 0.000000 224 227 226
70.000000 -27.000000 0.000000 226 229 228
71.000000 -27.000000 0.000000 226 229 228
72.000000 -27.000000 0.000000 224 227 226
73.000000 -27.000000 0.000000 220 223 222
74.000000 -27.000000 0.000000 214 218 217
75.000000 -27.000000 0.000000 204 208 210
76.000000 -27.000000 0.000000 172 175 180
77.000000 -27.000000 0.000000 60 60 63
78.000000 -27.000000 0.000000 2 2 2
63.000000 -28.000000 0.000000 179 182 180
64.000000 -28.000000 0.000000 181 184 183
65.000000 -28.000000 0.000000 194 195 194
66.000000 -28.000000 0.000000 215 217 216
67.000000 -28.000000 0.000000 210 213 212
68.000000 -28.000000 0.000000 209 212 211
69.000000 -28.000000 0.000000 213 216 215
70.000000 -28.000000 0.000000 215 219 218
71.000000 -28.000000 0.000000 215 219 218
72.000000 -28.000000 0.000000 212 216 215
73.000000 -28.000000 0.000000 209 213 212
74.000000 -28.000000 0.000000 204 208 208
75.000000 -28.000000 0.000000 196 200 202
76.000000 -28.000000 0.000000 162 165 169
77.000000 -28.000000 0.000000 51 51 53
78.000000 -28.000000 0.000000 1 1 1
63.000000 -29.000000 0.000000 175 177 175
64.000000 -29.000000 0.000000 181 183 182
65.000000 -29.000000 0.200000 186 187 187
66.000000 -29.000000 0.000000 204 206 205
67.000000 -29.000000 0.000000 209 213 212
68.000000 -29.000000 0.000000 201 205 204
69.000000 -29.000000 0.000000 203 207 206
70.000000 -29.000000 0.000000 205 209 208
71.000000 -29.000000 0.000000 205 209 208
72.000000 -29.000000 0.000000 202 206 206
73.000000 -29.000000 0.000000 200 204 204
74.000000 -29.000000 0.000000 195 200 200
75.000000 -29.000000 0.000000 187 193 195
76.000000 -29.000000 0.000000 151 156 159
77.000000 -29.000000 0.000000 43 44 45
78.000000 -29.000000 0.000000 1 1 1
63.000000 -30.000000 0.000000 173 175 173
64.000000 -30.000000 0.200000 178 180 179
65.000000 -30.000000 0.200000 181 183 182
66.000000 -30.000000 0.200000 191 193 192
67.000000 -30.000000 0.000000 209 211 210
68.000000 -30.000000 0.000000 199 202 201
69.000000 -30.000000 0.000000 196 200 199
70.000000 -30.000000 0.000000 197 201 200
71.000000 -30.000000 0.000000 197 201 200
72.000000 -30.000000 0.000000 195 199 199
73.000000 -30.000000 0.000000 192 196 197
74.000000 -30.000000 0.000000 187 192 194
75.000000 -30.000000 0.000000 180 187 190
76.000000 -30.000000 0.000000 141 147 150
77.000000 -30.000000 0.200000 36 38 38
78.000000 -30.000000 0.200000 1 1 1
63.000000 -31.000000 0.000000 171 173 171
64.000000 -31.000000 0.000000 175 177 176
65.000000 -31.000000 0.200000 178 180 179
66.000000 -31.000000 0.200000 182 184 183
67.000000 -31.000000 0.200000 202 204 203
68.000000 -31.000000 0.000000 199 202 201
69.000000 -31.000000 0.000000 191 194 193
70.000000 -31.000000 0.000000 190 194 193
71.000000 -31.000000 0.000000 190 194 193
72.000000 -31.000000 0.000000 188 192 192
73.000000 -31.000000 0.000000 186 190 191
74.000000 -31.000000 0.000000 182 186 188
75.000000 -31.000000 0.000000 175 180 184
76.000000 -31.000000 0.000000 134 137 141
77.000000 -31.000000 0.200000 31 32 33
78.000000 -31.000000 0.200000 0 0 0
63.000000 -32.000000 0.000000 169 171 168
64.000000 -32.000000 0.000000 172 174 173
65.000000 -32.000000 0.200000 176 178 177
66.000000 -32.000000 0.200000 177 179 178
67.000000 -32.000000 0.200000 190 192 191
68.000000 -32.000000 0.000000 200 202 201
69.000000 -32.000000 0.000000 187 190 189
70.000000 -32.000000 0.000000 184 187 186
71.000000 -32.000000 0.000000 183 187 186
72.000000 -32.000000 0.000000 182 186 186
73.000000 -32.000000 0.000000 180 184 185
74.000000 -32.000000 0.000000 175 179 182
75.000000 -32.000000 0.000000 169 173 178
76.000000 -32.000000 0.000000 125 128 132
77.000000 -32.000000 0.200000 26 27 27
78.000000 -32.000000 0.200000 0 0 0
63.000000 -33.000000 0.000000 168 169 168
64.000000 -33.000000 0.000000 170 172 171
65.000000 -33.000000 0.200000 173 175 174
66.000000 -33.000000 0.200000 174 176 175
67.000000 -33.000000 0.200000 179 181 180
68.000000 -33.000000 0.000000 195 197 196
69.000000 -33.000000 0.000000 186 188 187
70.000000 -33.000000 0.000000 178 181 180
71.000000 -33.000000 0.000000 176 180 179
72.000000 -33.000000 0.000000 176 180 180
73.000000 -33.000000 0.000000 174 178 179
74.000000 -33.000000 0.000000 169 174 176
75.000000 -33.000000 0.000000 162 169 172
76.000000 -33.000000 0.000000 116 121 123
77.000000 -33.000000 0.200000 22 23 23
78.000000 -33.000000 0.200000 0 0 0
63.000000 -34.000000 0.000000 166 168 167
64.000000 -34.000000 0.000000 168 170 169
65.000000 -34.000000 0.200000 170 172 171
66.000000 -34.000000 0.200000 171 173 172
67.000000 -34.000000 0.200000 171 173 172
68.000000 -34.000000 0.000000 185 187 186
69.000000 -34.000000 0.000000 184 187 186
70.000000 -34.000000 0.000000 172 175 174
71.000000 -34.000000 0.000000 169 173 172
72.000000 -34.000000 0.000000 168 174 173
73.000000 -34.000000 0.000000 167 173 174
74.000000 -34.000000 0.000000 165 171 174
75.000000 -34.000000 0.000000 157 164 168
76.000000 -34.000000 0.000000 107 112 115
77.000000 -34.000000 0.200000 18 19 19
78.000000 -34.000000 0.200000 0 0 0
63.000000 -35.000000 0.000000 163 164 164
64.000000 -35.000000 0.000000 164 166 165
65.000000 -35.000000 0.000000 166 168 167
66.000000 -35.000000 0.200000 167 169 168
67.000000 -35.000000 0.200000 166 168 167
68.000000 -35.000000 0.000000 173 175 174
69.000000 -35.000000 0.000000 181 184 183
70.000000 -35.000000 0.000000 167 171 170
71.000000 -35.000000 0.000000 163 168 167
72.000000 -35.000000 0.000000 162 169 169
73.000000 -35.000000 0.000000 162 170 173
74.000000 -35.000000 0.000000 162 169 174
75.000000 -35.000000 0.000000 152 159 165
76.000000 -35.000000 0.000000 99 104 108
77.000000 -35.000000 0.200000 15 16 16
78.000000 -35.000000 0.200000 0 0 0
63.000000 -36.000000 0.000000 155 156 156
64.000000 -36.000000 0.000000 155 156 156
65.000000 -36.000000 0.000000 154 157 156
66.000000 -36.000000 0.200000 153 156 155
67.000000 -36.000000 0.200000 152 155 154
68.000000 -36.000000 0.000000 152 154 153
69.000000 -36.000000 0.000000 161 165 164
70.000000 -36.000000 0.000000 151 155 154
71.000000 -36.000000 0.000000 143 148 147
72.000000 -36.000000 0.000000 141 146 149
73.000000 -36.000000 0.000000 139 144 151
74.000000 -36.000000 0.000000 136 141 148
75.000000 -36.000000 0.000000 131 135 141
76.000000 -36.000000 0.000000 82 85 89
77.000000 -36.000000 0.200000 11 12 12
78.000000 -36.000000 0.200000 0 0 0
63.000000 -37.000000 0.000000 85 85 85
64.000000 -37.000000 0.000000 82 82 82
65.000000 -37.000000 0.000000 77 78 78
66.000000 -37.000000 0.000000 73 75 74
67.000000 -37.000000 0.000000 69 71 71
68.000000 -37.000000 0.000000 65 67 66
69.000000 -37.000000 0.000000 66 68 67
70.000000 -37.000000 0.000000 61 63 63
71.000000 -37.000000 0.000000 55 57 57
72.000000 -37.000000 0.000000 52 53 54
73.000000 -37.000000 0.000000 49 50 53
74.000000 -37.000000 0.000000 46 47 49
75.000000 -37.000000 0.000000 43 44 46
76.000000 -37.000000 0.200000 26 27 28
77.000000 -37.000000 0.200000 3 3 4
78.000000 -37.000000 0.200000 0 0 0
63.000000 -38.000000 0.000000 8 8 8
64.000000 -38.000000 0.000000 7 7 7
65.000000 -38.000000 0.000000 6 6 6
66.000000 -38.000000 0.000000 5 5 5
67.000000 -38.000000 0.000000 4 4 4
68.000000 -38.000000 0.000000 4 4 4
69.000000 -38.000000 0.000000 3 3 3
70.000000 -38.000000 0.000000 3 3 3
71.000000 -38.000000 0.000000 2 2 2
72.000000 -38.000000 0.000000 2 2 2
73.000000 -38.000000 0.000000 2 2 2
74.000000 -38.000000 0.000000 1 1 1
75.000000 -38.000000 0.000000 1 1 1
76.000000 -38.000000 0.200000 1 1 1
77.000000 -38.000000 0.200000 0 0 0
78.000000 -38.000000 0.200000 0 0 0
63.000000 -39.000000 0.000000 0 0 0
64.000000 -39.000000 0.000000 0 0 0
65.000000 -39.000000 0.000000 0 0 0
66.000000 -39.000000 0.000000 0 0 0
67.000000 -39.000000 0.000000 0 0 0
68.000000 -39.000000 0.000000 0 0 0
69.000000 -39.000000 0.000000 0 0 0
70.000000 -39.000000 0.000000 0 0 0
71.000000 -39.000000 0.000000 0 0 0
72.000000 -39.000000 0.000000 0 0 0
73.000000 -39.000000 0.000000 0 0 0
74.000000 -39.000000 0.000000 0 0 0
75.000000 -39.000000 0.000000 0 0 0
76.000000 -39.000000 0.200000 0 0 0
77.000000 -39.000000 0.200000 0 0 0
78.000000 -39.000000 0.000000 0 0 0
63.000000 -40.000000 0.000000 0 0 0
64.000000 -40.000000 0.000000 0 0 0
65.000000 -40.000000 0.000000 0 0 0
66.000000 -40.000000 0.000000 0 0 0
67.000000 -40.000000 0.000000 0 0 0
68.000000 -40.000000 0.000000 0 0 0
69.000000 -40.000000 0.000000 0 0 0
70.000000 -40.000000 0.000000 0 0 0
71.000000 -40.000000 0.000000 0 0 0
72.000000 -40.000000 0.000000 0 0 0
73.000000 -40.000000 0.000000 0 0 0
74.000000 -40.000000 0.000000 0 0 0
75.000000 -40.000000 0.200000 0 0 0
76.000000 -40.000000 0.200000 0 0 0
77.000000 -40.000000 0.200000 0 0 0
78.000000 -40.000000 0.000000 0 0 0
63.000000 -41.000000 0.000000 0 0 0
64.000000 -41.000000 0.000000 0 0 0
65.000000 -41.000000 0.000000 0 0 0
66.000000 -41.000000 0.000000 0 0 0
67.000000 -41.000000 0.000000 0 0 0
68.000000 -41.000000 0.000000 0 0 0
69.000000 -41.000000 0.000000 0 0 0
70.000000 -41.000000 0.000000 0 0 0
71.000000 -41.000000 0.000000 0 0 0
72.000000 -41.000000 0.000000 0 0 0
73.000000 -41.000000 0.000000 0 0 0
74.000000 -41.000000 0.200000 0 0 0
75.000000 -41.000000 0.200000 0 0 0
76.000000 -41.000000 0.200000 0 0 0
77.000000 -41.000000 0.200000 0 0 0
78.000000 -41.000000 0.000000 0 0 0
63.000000 -42.000000 0.000000 0 0 0
64.000000 -42.000000 0.000000 0 0 0
65.000000 -42.000000 0.000000 0 0 0
66.000000 -42.000000 0.000000 0 0 0
67.000000 -42.000000 0.000000 0 0 0
68.000000 -42.000000 0.000000 0 0 0
69.000000 -42.000000 0.000000 0 0 0
70.000000 -42.000000 0.000000 0 0 0
71.000000 -42.000000 0.000000 0 0 0
72.000000 -42.000000 0.000000 0 0 0
73.000000 -42.000000 0.200000 0 0 0
74.000000 -42.000000 0.200000 0 0 0
75.000000 -42.000000 0.200000 0 0 0
76.000000 -42.000000 0.200000 0 0 0
77.000000 -42.000000 0.200000 0 0 0
78.000000 -42.000000 0.200000 0 0 0
63.000000 -43.000000 0.000000 0 0 0
64.000000 -43.000000 0.000000 0 0 0
65.000000 -43.000000 0.000000 0 0 0
66.000000 -43.000000 0.000000 0 0 0
67.000000 -43.000000 0.000000 0 0 0
68.000000 -43.000000 0.000000 0 0 0
69.000000 -43.000000 0.000000 0 0 0
70.000000 -43.000000 0.000000 0 0 0
71.000000 -43.000000 0.000000 0 0 0
72.000000 -43.000000 0.200000 0 0 0
73.000000 -43.000000 0.200000 0 0 0
74.000000 -43.000000 0.200000 0 0 0
75.000000 -43.000000 0.200000 0 0 0
76.000000 -43.000000 0.200000 0 0 0
77.000000 -43.000000 0.200000 0 0 0
78.000000 -43.000000 0.200000 0 0 0
63.000000 -44.000000 0.000000 0 0 0
64.000000 -44.000000 0.000000 0 0 0
65.000000 -44.000000 0.000000 0 0 0
66.000000 -44.000000 0.000000 0 0 0
67.000000 -44.000000 0.000000 0 0 0
68.000000 -44.000000 0.000000 0 0 0
69.000000 -44.000000 0.000000 0 0 0
70.000000 -44.000000 0.000000 0 0 0
71.000000 -44.000000 0.200000 0 0 0
72.000000 -44.000000 0.200000 0 0 0
73.000000 -44.000000 0.200000 0 0 0
74.000000 -44.000000 0.200000 0 0 0
75.000000 -44.000000 0.200000 0 0 0
76.000000 -44.000000 0.200000 0 0 0
77.000000 -44.000000 0.200000 0 0 0
78.000000 -44.000000 0.200000 0 0 0
